<svg xmlns="http://www.w3.org/2000/svg" width="50" height="50" fill="none"><path fill="#000" d="M6.79 37.096A21.72 21.72 0 0 1 3.222 23.02a23 23 0 0 1 .565-3.39 21 21 0 0 1 .96-2.899A21.5 21.5 0 0 1 9.54 9.536 21.54 21.54 0 0 1 18.87 4a20 20 0 0 1 2.978-.64 1 1 0 0 0 .103-.022c5.656-.792 11.294.607 15.874 3.943q.674.488 1.306 1.024l-1.649.088a.78.78 0 0 0 .042 1.562l.043-.001 3.491-.187c.075-.004.145-.031.216-.057.018-.006.039-.007.057-.015.052-.024.095-.06.141-.096.038-.028.079-.05.111-.084q.009-.006.017-.013c.024-.026.033-.061.053-.091.035-.05.07-.1.093-.159.014-.037.014-.075.023-.114.012-.054.033-.104.033-.161 0-.01-.006-.02-.006-.03l.002-.016-.2-3.48a.78.78 0 1 0-1.56.09l.09 1.562a24 24 0 0 0-1.382-1.086C33.812 2.424 27.739.93 21.64 1.805a1 1 0 0 0-.092.02c-1.022.141-2.07.369-3.115.675a23.4 23.4 0 0 0-3.442 1.3 23.1 23.1 0 0 0-6.556 4.631 23.05 23.05 0 0 0-5.13 7.707 22.5 22.5 0 0 0-1.03 3.116 24.4 24.4 0 0 0-.605 3.627 23.28 23.28 0 0 0 3.825 15.086.78.78 0 0 0 1.084.214.78.78 0 0 0 .213-1.085zM43.424 11.82a.78.78 0 0 0-.213 1.084 21.72 21.72 0 0 1 3.566 14.076 23 23 0 0 1-.565 3.39 21 21 0 0 1-.96 2.899 21.5 21.5 0 0 1-4.791 7.195A21.54 21.54 0 0 1 31.13 46a20 20 0 0 1-2.978.64 1 1 0 0 0-.103.022c-5.659.79-11.294-.606-15.874-3.943q-.682-.494-1.307-1.025l1.65-.09a.782.782 0 0 0-.086-1.56l-3.487.192a.78.78 0 0 0-.737.823l.193 3.487a.78.78 0 0 0 .778.738h.044a.78.78 0 0 0 .737-.824l-.086-1.56c.444.374.9.736 1.382 1.084a23.2 23.2 0 0 0 13.697 4.457c1.129 0 2.267-.08 3.405-.244a1 1 0 0 0 .092-.02c1.022-.142 2.07-.37 3.115-.675 1.172-.34 2.33-.778 3.443-1.301a23.1 23.1 0 0 0 6.556-4.63 23.05 23.05 0 0 0 5.13-7.707c.407-.977.753-2.023 1.03-3.116.3-1.242.505-2.464.605-3.627a23.28 23.28 0 0 0-3.825-15.086.78.78 0 0 0-1.084-.213z"/><path fill="#000" d="M37.563 18.07a.6.6 0 0 0-.047-.234.2.2 0 0 0-.032-.078.7.7 0 0 0-.132-.203.1.1 0 0 0-.032-.024.5.5 0 0 0-.14-.117l-11.75-6.773a.78.78 0 0 0-.782 0L12.82 17.469a.78.78 0 0 0-.39.672v13.265c0 .032.015.063.015.094.008.055.016.11.04.164a.4.4 0 0 0 .062.125.676.676 0 0 0 .195.226c.031.024.047.055.078.07l11.75 6.782c.016.016.04.016.055.031l.063.024c.085.031.18.055.273.055s.18-.024.273-.055c.016-.008.04-.016.055-.024.023-.007.04-.015.063-.023l11.828-6.836c.03-.016.047-.047.078-.07.039-.032.078-.055.11-.094.038-.04.062-.086.093-.133a.6.6 0 0 0 .055-.125.6.6 0 0 0 .039-.164c0-.031.015-.055.015-.094V18.094c0-.008-.008-.016-.008-.024M25.039 12.22l10.188 5.875-3.891 2.25-10.188-5.883zm-.86 24.625L13.993 30.96V19.5l10.188 5.875zm.774-12.82-10.18-5.883 4.813-2.774 10.187 5.875zm11.055 6.89-10.266 5.93V25.375l4.813-2.781v2.133c0 .43.343.78.78.78.43 0 .782-.35.782-.78v-3.032l3.89-2.25z"/></svg>